# xmcd
#
# Track frame offsets:
#	150
#	15327
#	28249
#	39071
#	57071
#	72454
#	84845
#	101403
#	121779
#	141251
#	161206
#
# Disc length: 2436 seconds
#
# Revision: 0
# Processed by: cddbd v1.5.2PL0 Copyright (c) Steve Scherf et al.
# Submitted via: EasyCDDAExtractor 10.2.0.1
#
DISCID=8209820b
DTITLE=Various Artist - HMG Christian Country Vol. 89
DYEAR=2003
DGENRE=Gospel
TTITLE0=Ricochet - That's Love
TTITLE1=Lawrence Bishop - The Ways And Means
TTITLE2=Connie Strange and Debbie Bennett - We Will Stand
TTITLE3=Randy Gunn - He's The One
TTITLE4=Chuck Campbell - Walking A Little Starighter
TTITLE5=James Taylor - Till The Answer Comes
TTITLE6=Rebecca Lou - Everyday Heros
TTITLE7=Nick Highman - O Come, O Come Emanuel
TTITLE8=Vonnie Wood - On My Knees For You
TTITLE9=Alisa Burgos - The Eyes Of Angels
TTITLE10=Wayne Hansen - Preacher Man
EXTD=
EXTT0=
EXTT1=
EXTT2=
EXTT3=
EXTT4=
EXTT5=
EXTT6=
EXTT7=
EXTT8=
EXTT9=
EXTT10=
PLAYORDER=
